<?xml version="1.0" encoding="utf-8"?>
<!-- Generator: Adobe Illustrator 18.1.1, SVG Export Plug-In . SVG Version: 6.00 Build 0)  -->
<svg version="1.1" id="Layer_1" xmlns="http://www.w3.org/2000/svg" xmlns:xlink="http://www.w3.org/1999/xlink" x="0px" y="0px"
	 viewBox="0 0 544.7 108.7" enable-background="new 0 0 544.7 108.7" xml:space="preserve">
<g>
	<path fill="#FF5947" d="M100.7,84.2v6.9h-3.1c-0.9-0.8-2.5-2.2-4.3-2.2c-2.8,0-5.1,2.4-5.1,5.2c0,2.8,2.3,5,5.1,5
		c1.8,0,3.4-0.9,4.3-2.5h3.1v7.5h45.7V84.2H100.7z"/>
	<path fill="#FF5947" d="M395,27.1c-1.8,0-3.4,0.9-4.3,2.3h-3.2V4.8h-19.8V104h19.8V35h3.2c0.9,1.4,2.5,2.3,4.3,2.3
		c2.8,0,5.1-2.3,5.1-5.1C400.1,29.4,397.8,27.1,395,27.1"/>
	<path fill="#FF5947" d="M537.4,57.9v-3.3h7.1c0-6.7-1.3-13.3-4-19.4c-2.4-5.9-5.9-11.2-10.6-15.9c-4.5-4.5-9.8-8.1-15.7-10.7
		c-6.1-2.5-12.6-3.8-19.3-3.8h-28v49.8l7.2,0l0,0v-3.3c-1.4-0.9-2.3-2.5-2.3-4.3c0-2.8,2.3-5.1,5.1-5.1c2.8,0,5.1,2.3,5.1,5.1
		c0,1.8-0.9,3.4-2.3,4.3v3.3l7.1,0l0.1-30l8.2-0.1c16.4,0,29.7,13.5,29.7,30h7.2v3.3c-1.4,0.9-2.3,2.5-2.3,4.3
		c0,2.8,2.3,5.1,5.1,5.1c2.8,0,5.1-2.3,5.1-5.1C539.7,60.3,538.8,58.8,537.4,57.9"/>
	<path fill="#FF5947" d="M298.9,23.4c17.1,0,31.4,13.6,31.5,30.6c0-0.1,0-0.1,0-0.2h7.6v-3.3c-1.4-0.9-2.3-2.5-2.3-4.3
		c0-2.8,2.3-5.1,5.1-5.1c2.8,0,5.1,2.3,5.1,5.1c0,1.8-0.9,3.4-2.3,4.3v3.3h7.3c-0.2-28-23.2-50.8-51.9-50.8v7.3h-3.3
		C294.7,9,293.1,8,291.3,8c-2.8,0-5.1,2.3-5.1,5.1c0,2.8,2.3,5.1,5.1,5.1c1.8,0,3.4-0.9,4.3-2.3h3.3V23.4z"/>
	<path fill="#EA5F31" d="M350.8,54.3L350.8,54.3c0-0.1,0-0.1,0-0.2C350.8,54.1,350.8,54.2,350.8,54.3"/>
	<path fill="#FF5947" d="M100.7,42.9V50h3.3c0.9-1.4,2.5-2.3,4.3-2.3c2.8,0,5.1,2.3,5.1,5.1c0,2.8-2.3,5.1-5.1,5.1
		c-1.8,0-3.4-0.9-4.3-2.3h-3.3v7.2h37.6V42.9H100.7z"/>
	<path fill="#FF5947" d="M51.4,50c-10,13.1-20.6,13.1-21.1,13.1c0,0-0.1,0-0.2,0c0,0,0,0,0,0h2.5c6.7,0,12.5,5.5,12.5,12.2
		S39.6,87.2,33,87.2H18.8v5.4h-2.6c-0.9-1.6-2.5-2.3-4.3-2.3c-2.8,0-5.1,2.3-5.1,5.2c0,2.8,2.3,5,5.1,5c1.8,0,3.4-0.9,4.3-2.4h2.6
		v6.2h14.4c16.6,0,30-13.5,30-30.2C63.3,64.6,58.4,55.6,51.4,50"/>
	<path fill="#FF5947" d="M214.2,67.6l32.3-62.9h-21.9l-20.3,42.3L183.9,4.8H162l32.4,62.9h7.1v3.3c-1.4,0.9-2.3,2.5-2.3,4.3
		c0,2.8,2.3,5.1,5.1,5.1c2.8,0,5.1-2.3,5.1-5.1c0-1.8-0.9-3.4-2.3-4.3v-3.3H214.2z"/>
	<path fill="#87DEB0" d="M100.6,4.7v7H97c-0.9-1.6-2.5-2.2-4.3-2.2c-2.8,0-5.1,2.3-5.1,5.2c0,2.8,2.3,5,5.1,5c1.8,0,3.4-0.9,4.3-2.5
		h3.5v7.8h45.9V4.7H100.6z"/>
	<path fill="#87DEB0" d="M428.4,4.6v67.8H425c-0.9-1.4-2.5-2.3-4.3-2.3c-2.8,0-5.1,2.3-5.1,5.1c0,2.8,2.3,5.1,5.1,5.1
		c1.8,0,3.4-0.9,4.3-2.3h3.4v25.9h19.8V4.6H428.4z"/>
	<path fill="#87DEB0" d="M343.5,53.9v-3.3c1.4-0.9,2.3-2.5,2.3-4.3c0-2.8-2.3-5.1-5.1-5.1c-2.8,0-5.1,2.3-5.1,5.1
		c0,1.8,0.9,3.4,2.3,4.3v3.3h-7.6c0,17.2-13.7,31.5-31.5,31.5v7.4h3.6c0.9-1.4,2.5-2.3,4.3-2.3c2.8,0,5.1,2.3,5.1,5.1
		s-2.3,5.1-5.1,5.1c-1.8,0-3.4-0.9-4.3-2.3h-3.6v7.5c28.8,0,51.9-23.1,51.9-51.9H343.5z"/>
	<path fill="#87DEB0" d="M486.7,96.9h-3.3c-0.9,1.4-2.5,2.3-4.3,2.3c-2.8,0-5.1-2.3-5.1-5.1s2.3-5.1,5.1-5.1c1.8,0,3.4,0.9,4.3,2.3
		h3.3v-7.1V54.6h-7.1v-3.4c1.4-0.9,2.3-2.5,2.3-4.3c0-2.8-2.3-5.1-5.1-5.1c-2.8,0-5.1,2.3-5.1,5.1c0,1.8,0.9,3.4,2.3,4.3v3.3
		l0.1,0.1h-7.2V104l19.8,0.1V96.9z"/>
	<path fill="#87DEB0" d="M27.6,4.7h-8.8v6.2h3.4c0.9-0.8,2.5-2.2,4.3-2.2c2.8,0,5.1,2.5,5.1,5.3s-2.3,5.3-5.1,5.3
		c-1.8,0-3.4-1.3-4.3-2.1h-3.4V21h7.9c5.5,0,11.5,4.2,11.5,11.1c0,6.9-5.9,11.4-11.5,11.4h-7.9v7h-3.2h0c0,0,0,0,0,0
		c-0.9-0.8-2.5-2.2-4.3-2.2c-2.6,0-4.8,2-5.1,4.6c0,0.2,0,0.3,0,0.5c0,2.8,2.3,5,5.1,5c0.8,0,1.5-0.2,2.1-0.5c0.9-0.4,1.7-1.1,2.2-2
		h0h3.2v7c0,0,10.8,0,11.4,0c0.5,0,12.2,0,22.6-15.1c2.4-4.2,3.8-9,3.8-14.2C56.6,17.8,43.6,4.7,27.6,4.7"/>
	<path fill="#FFE27D" d="M26.5,8.7c-1.8,0-3.4,1.4-4.3,2.2h-3.4V4.7H0.2v99.6h18.7v-6.2h-2.6c-0.9,1.6-2.5,2.4-4.3,2.4
		c-2.8,0-5.1-2.2-5.1-5s2.3-5.2,5.1-5.2c1.8,0,3.4,0.7,4.3,2.3h2.6v-5.4V63.1v-7h-3.2c-0.9,1.6-2.5,2.5-4.3,2.5
		c-2.8,0-5.1-2.1-5.1-5c0-2.8,2.3-5.2,5.1-5.2c1.8,0,3.4,1.4,4.3,2.2h3.2v-7V21v-3.9h3.4c0.9,0.8,2.5,2.1,4.3,2.1
		c2.8,0,5.1-2.5,5.1-5.3S29.4,8.7,26.5,8.7"/>
	<path fill="#FFE27D" d="M428.4,78H425c-0.9,1.4-2.5,2.3-4.3,2.3c-2.8,0-5.1-2.3-5.1-5.1s2.3-5.1,5.1-5.1c1.8,0,3.4,0.9,4.3,2.3h3.4
		v-5.7l-40.9-62v24.7h3.2c0.9-1.4,2.5-2.3,4.3-2.3c2.8,0,5.1,2.3,5.1,5.1c0,2.8-2.3,5.1-5.1,5.1c-1.8,0-3.4-0.9-4.3-2.3h-3.2v5.2
		l40.9,63.4V78z"/>
</g>
<polygon fill="#4867AE" points="428.6,103.9 428.7,104 428.7,103.9 "/>
<g>
	<path fill="#FFE27D" d="M537.4,54.6v3.3c1.4,0.9,2.3,2.5,2.3,4.3c0,2.8-2.3,5.1-5.1,5.1c-2.8,0-5.1-2.3-5.1-5.1
		c0-1.8,0.9-3.4,2.3-4.3v-3.3h-7.2c0,0,0-0.1,0-0.1c0,16.4-13.3,29.8-29.7,29.8l-8.3,0v7.1h-3.3c-0.9-1.4-2.5-2.3-4.3-2.3
		c-2.8,0-5.1,2.3-5.1,5.1c0,2.8,2.3,5.1,5.1,5.1c1.8,0,3.4-0.9,4.3-2.3h3.3v7.2h8.3c6.7,0,13.2-1.3,19.3-4
		c5.9-2.4,11.2-6.1,15.7-10.6c4.7-4.5,8.2-9.8,10.6-15.7c2.7-6,3.9-12.5,4-19.2H537.4z"/>
	<path fill="#FFE27D" d="M207,70.9c1.4,0.9,2.3,2.5,2.3,4.3c0,2.8-2.3,5.1-5.1,5.1s-5.1-2.3-5.1-5.1c0-1.8,0.9-3.4,2.3-4.3v-3.3
		h-7.1V104h19.8V67.6H207V70.9z"/>
	<path fill="#FFE27D" d="M306.8,90.4c-1.8,0-3.4,0.9-4.3,2.3h-3.6v-7.4c-17.2,0-31-13.9-31-31c0-17.1,13.8-31,31-31v-7.4h-3.3
		c-0.9,1.4-2.5,2.3-4.3,2.3c-2.8,0-5.1-2.3-5.1-5.1c0-2.8,2.3-5.1,5.1-5.1c1.8,0,3.4,0.9,4.3,2.3h3.3V3.1V2.9
		c-28.2,0-51.4,23.1-51.4,51.4s23.2,51.4,51.4,51.4v-7.5h3.6c0.9,1.4,2.5,2.3,4.3,2.3c2.8,0,5.1-2.3,5.1-5.1
		C311.9,92.7,309.7,90.4,306.8,90.4"/>
	<path fill="#FFE27D" d="M108.3,47.7c-1.8,0-3.4,0.9-4.3,2.3h-3.4V24.9h-0.1v-7.8H97c-0.9,1.6-2.5,2.5-4.3,2.5c-2.8,0-5.1-2.2-5.1-5
		c0-2.8,2.3-5.2,5.1-5.2c1.8,0,3.4,0.7,4.3,2.2h3.5V4.8H80.3V104h20.4v-7.5h-3.1C96.6,98.1,95,99,93.2,99c-2.8,0-5.1-2.1-5.1-5
		c0-2.8,2.3-5.2,5.1-5.2c1.8,0,3.4,1.4,4.3,2.2h3.1v-6.9V55.3l0.1,0.3h3.3c0.9,1.4,2.5,2.3,4.3,2.3c2.8,0,5.1-2.3,5.1-5.1
		C113.4,50,111.1,47.7,108.3,47.7"/>
</g>
</svg>
