<?xml version="1.0" encoding="utf-8"?>
<!-- Generator: Adobe Illustrator 18.1.1, SVG Export Plug-In . SVG Version: 6.00 Build 0)  -->
<svg version="1.1" id="Layer_1" xmlns="http://www.w3.org/2000/svg" xmlns:xlink="http://www.w3.org/1999/xlink" x="0px" y="0px"
	 viewBox="0 0 544.3 102.8" enable-background="new 0 0 544.3 102.8" xml:space="preserve">
<g>
	<path fill="#5AB78F" d="M101.1,80.5v7h-3c-0.9-0.8-2.5-2.3-4.3-2.3c-2.8,0-5.1,2.3-5.1,5.1c0,2.8,2.3,5,5.1,5
		c1.8,0,3.4-0.9,4.3-2.4h3v7h45.7V80.5H101.1z"/>
	<path fill="#5AB78F" d="M394.3,23.8c-1.8,0-3.4,0.9-4.3,2.5h-2.9V1.5h-20.2v98.4h20.2V31.7h2.9c0.9,1.6,2.5,2.2,4.3,2.2
		c2.8,0,5.1-2.3,5.1-5.1S397.1,23.8,394.3,23.8z"/>
	<path fill="#5AB78F" d="M535.9,54.3v-3.2h7.3c0-7-1.3-13.3-3.9-19.3c-2.4-5.9-5.9-11.2-10.6-15.9c-4.5-4.5-9.7-8.1-15.7-10.6
		c-6.1-2.5-12.5-3.8-19.2-3.8h-27.7V51l7.1,0l-0.1,0v-3.3c-1.6-0.9-2.4-2.5-2.4-4.3c0-2.8,2.3-5.1,5.1-5.1c2.8,0,5.1,2.3,5.1,5.1
		c0,1.8-0.8,3.4-2.4,4.3V51l7.1,0l0.1-29.8l8.2,0c16.4,0,29.6,13.7,29.6,29.9h7v3.2c-1.6,0.9-2.2,2.5-2.2,4.3c0,2.8,2.3,5.1,5.1,5.1
		c2.8,0,5-2.3,5-5.1C538.3,56.8,537.4,55.2,535.9,54.3z"/>
	<g>
		<path fill="#5AB78F" d="M298.7,20c17.1,0,31.2,13.5,31.3,30.5c0-0.1,0-0.2,0-0.2h7.5V47c-1.6-0.9-2.3-2.5-2.3-4.3
			c0-2.8,2.3-5.1,5.1-5.1s5,2.3,5,5.1c0,1.8-0.8,3.4-2.4,4.3v3.3h7.4C350,22.4,327.4-0.3,298.7-0.3v7.2h-3.4
			c-0.9-1.6-2.5-2.3-4.3-2.3c-2.8,0-5.1,2.3-5.1,5.1s2.3,5,5.1,5c1.8,0,3.4-0.9,4.3-2.4h3.4V20z"/>
		<path fill="#5AB78F" d="M350.3,50.7L350.3,50.7c0-0.1,0-0.1,0-0.2C350.3,50.6,350.3,50.6,350.3,50.7z"/>
	</g>
	<path fill="#5AB78F" d="M101.1,39.4v7h3.4c0.9-1.6,2.5-2.3,4.3-2.3c2.8,0,5.1,2.3,5.1,5.1c0,2.8-2.3,5-5.1,5
		c-1.8,0-3.4-0.8-4.3-2.4h-3.4v7h38V39.4H101.1z"/>
	<path fill="#5AB78F" d="M52.1,46.5c-10,13-20.5,13-21,13c0,0-0.1,0-0.2,0c0,0,0,0,0,0h2.5c6.6,0,12.5,5.5,12.5,12.1
		c0,6.6-5.5,11.9-12.1,11.9H19.7V89h-2.6c-0.9-1.6-2.5-2.3-4.3-2.3c-2.8,0-5.1,2.3-5.1,5.1c0,2.8,2.3,5,5.1,5c1.8,0,3.4-0.8,4.3-2.4
		h2.6v6.2h14.3c16.5,0,29.9-13.5,29.9-30.1C63.9,61.1,59.1,52,52.1,46.5z"/>
	<path fill="#5AB78F" d="M214.3,64.2l32.1-62.8h-21.9l-20.2,42.1L184.1,1.5h-21.9l32.3,62.8h7.3v3.1c-1.6,0.9-2.5,2.5-2.5,4.3
		c0,2.8,2.2,5.1,5,5.1c2.8,0,5.2-2.3,5.2-5.1c0-1.8-0.7-3.4-2.3-4.3v-3.1H214.3z"/>
</g>
<g>
	<path fill="#FFA397" d="M101.1,1.5v7h-3.5c-0.9-1.6-2.5-2.3-4.3-2.3c-2.8,0-5.1,2.3-5.1,5.1s2.3,5,5.1,5c1.8,0,3.4-0.9,4.3-2.4h3.5
		v7.8h45.7V1.5H101.1z"/>
	<path fill="#FFA397" d="M427.4,1.5v67.4h-3.1c-0.9-1.6-2.5-2.4-4.3-2.4c-2.8,0-5.1,2.3-5.1,5.1c0,2.8,2.3,5.1,5.1,5.1
		c1.8,0,3.4-0.8,4.3-2.3h3.1v25.6h20.2V1.5H427.4z"/>
	<path fill="#FFA397" d="M342.9,50.3V47c1.6-0.9,2.4-2.5,2.4-4.3c0-2.8-2.2-5.1-5.1-5.1s-5.1,2.3-5.1,5.1c0,1.8,0.8,3.4,2.3,4.3v3.3
		H330c0,17.1-13.4,31.4-31.2,31.4V89h3.5c0.9-1.6,2.5-2.4,4.3-2.4c2.8,0,5.1,2.3,5.1,5.1c0,2.8-2.3,5.1-5.1,5.1
		c-1.8,0-3.4-0.8-4.3-2.4h-3.5v7.5c28.7,0,51.5-23,51.5-51.7H342.9z"/>
	<path fill="#FFA397" d="M485.5,92.9h-3.2c-0.9,1.6-2.5,2.5-4.3,2.5c-2.8,0-5.1-2.2-5.1-5c0-2.8,2.3-5.2,5.1-5.2
		c1.8,0,3.4,0.7,4.3,2.3h3.2v-6.9V51.1h-7v-3.4c1.6-0.9,2.3-2.5,2.3-4.3c0-2.8-2.3-5.1-5.1-5.1c-2.8,0-5.1,2.3-5.1,5.1
		c0,1.8,0.8,3.4,2.4,4.3V51l0,0.1h-7v49.1l19.4,0.1V92.9z"/>
	<path fill="#FFA397" d="M28.4,1.5h-8.7v6.2h3.4c0.9-0.8,2.5-2.3,4.3-2.3c2.8,0,5.1,2.4,5.1,5.2c0,2.8-2.3,5.3-5.1,5.3
		c-1.8,0-3.3-1.3-4.3-2.1h-3.4v3.9h7.9c5.5,0,11.4,4.2,11.4,11.1c0,6.9-5.9,11.4-11.4,11.4h-7.9v7h-3.2h0c0,0,0-0.1,0-0.1
		c-0.9-0.8-2.5-2.2-4.3-2.2c-2.6,0-4.8,2-5.1,4.6c0,0.2,0,0.3,0,0.5c0,2.8,2.3,5,5.1,5c0.7,0,1.5-0.1,2.1-0.4
		c0.9-0.4,1.6-1.2,2.2-1.9h0h3.2v6.9c0,0,10.7,0,11.4,0c0.5,0,12.1,0,22.5-15c2.4-4.2,3.8-8.9,3.8-14.1C57.3,14.4,44.4,1.5,28.4,1.5
		z"/>
</g>
<g>
	<path fill="#263D8E" d="M27.4,5.4c-1.8,0-3.4,1.5-4.3,2.3h-3.4V1.5H1.1v99.2h18.6v-6.2h-2.6c-0.9,1.6-2.5,2.4-4.3,2.4
		c-2.8,0-5.1-2.2-5.1-5c0-2.8,2.3-5.1,5.1-5.1c1.8,0,3.4,0.7,4.3,2.3h2.6v-5.5v-24v-6.9h-3.2C15.6,54.2,14,55,12.2,55
		c-2.8,0-5.1-2.2-5.1-5s2.3-5.1,5.1-5.1c1.8,0,3.4,1.5,4.3,2.2h3.2v-7.1V17.6v-3.8h3.4c0.9,0.8,2.5,2.1,4.3,2.1
		c2.8,0,5.1-2.5,5.1-5.3C32.5,7.8,30.2,5.4,27.4,5.4z"/>
	<g>
		<path fill="#263D8E" d="M427.4,74.3h-3.1c-0.9,1.6-2.5,2.3-4.3,2.3c-2.8,0-5.1-2.3-5.1-5.1c0-2.8,2.3-5,5.1-5
			c1.8,0,3.4,0.8,4.3,2.4h3.1v-5.7L387.1,1.4v24.8h2.9c0.9-1.6,2.5-2.5,4.3-2.5c2.8,0,5.1,2.2,5.1,5s-2.3,5.2-5.1,5.2
			c-1.8,0-3.4-0.7-4.3-2.3h-2.9v5l40.3,63.1V74.3z"/>
		<polygon fill="#263D8E" points="427.8,100.1 427.9,100.3 427.9,100.1 		"/>
	</g>
	<g>
		<path fill="#263D8E" d="M543.2,50.8L543.2,50.8C543.2,50.9,543.2,50.9,543.2,50.8C543.2,50.9,543.2,50.9,543.2,50.8z"/>
		<path fill="#263D8E" d="M535.9,51.1v3.2c1.6,0.9,2.5,2.5,2.5,4.3c0,2.8-2.2,5.1-5,5.1c-2.8,0-5.1-2.3-5.1-5.1
			c0-1.8,0.7-3.4,2.3-4.3v-3.2h-7c0,0,0-0.1,0-0.1c0,16.3-13.3,29.7-29.7,29.7l-8.3,0v6.9h-3.2c-0.9-1.6-2.5-2.2-4.3-2.2
			c-2.8,0-5.1,2.3-5.1,5.1c0,2.8,2.3,5,5.1,5c1.8,0,3.4-0.9,4.3-2.5h3.2v7.8h8.4c6.6,0,13.1-1.4,19.2-4.1
			c5.9-2.4,11.1-6.1,15.7-10.7c4.7-4.5,8.2-9.7,10.6-15.7c2.7-6,3.9-12.2,3.9-19.2H535.9z"/>
	</g>
	<path fill="#263D8E" d="M207.3,67.3c1.6,0.9,2.2,2.5,2.2,4.3c0,2.8-2.3,5.1-5.1,5.1s-5-2.3-5-5.1c0-1.8,0.9-3.4,2.5-4.3v-3.1h-7.3
		l0.4-0.2v35.9h19.4V64.2h-7V67.3z"/>
	<path fill="#263D8E" d="M306.5,86.7c-1.8,0-3.4,0.8-4.3,2.4h-3.5v-7.4c-17.1,0-30.9-13.8-30.9-30.9c0-17.1,13.8-30.9,30.9-30.9
		v-7.6h-3.4c-0.9,1.6-2.5,2.4-4.3,2.4c-2.8,0-5.1-2.2-5.1-5s2.3-5.1,5.1-5.1c1.8,0,3.4,0.8,4.3,2.3h3.4v-7.2v-0.1
		c-27.9,0-51.2,23-51.2,51.2c0,28.2,23.3,51.2,51.2,51.2v-7.5h3.5c0.9,1.6,2.5,2.4,4.3,2.4c2.8,0,5.1-2.3,5.1-5.1
		C311.6,88.9,309.3,86.7,306.5,86.7z"/>
	<path fill="#263D8E" d="M108.8,44.1c-1.8,0-3.4,0.8-4.3,2.3h-3.4V21.6l0,0v-7.8h-3.5c-0.9,1.6-2.5,2.4-4.3,2.4
		c-2.8,0-5.1-2.2-5.1-5s2.3-5.1,5.1-5.1c1.8,0,3.4,0.7,4.3,2.3h3.5v-7H80.9v98.4h20.2v-7h-3c-0.9,1.6-2.5,2.4-4.3,2.4
		c-2.8,0-5.1-2.2-5.1-5c0-2.8,2.3-5.1,5.1-5.1c1.8,0,3.4,1.5,4.3,2.2h3v-7V51.7l0.1,0.1h3.3c0.9,1.6,2.5,2.4,4.3,2.4
		c2.8,0,5.1-2.3,5.1-5.1C113.9,46.4,111.6,44.1,108.8,44.1z"/>
</g>
</svg>
