<?xml version="1.0" encoding="UTF-8" standalone="no"?>
<svg width="783px" height="648px" viewBox="0 0 783 648" version="1.1" xmlns="http://www.w3.org/2000/svg" xmlns:xlink="http://www.w3.org/1999/xlink" xmlns:sketch="http://www.bohemiancoding.com/sketch/ns">
    <!-- Generator: Sketch 3.4.3 (16618) - http://www.bohemiancoding.com/sketch -->
    <title>Shape</title>
    <desc>Created with Sketch.</desc>
    <defs></defs>
    <g id="Page-1" stroke="none" stroke-width="1" fill="none" fill-rule="evenodd" sketch:type="MSPage">
        <g id="twitter-white" sketch:type="MSLayerGroup" fill="#FFFFFF">
            <path d="M779.6,76.6 C776.1,73.1 769.2,69.7 765.7,69.7 C762.2,69.7 758.8,69.7 751.8,73.2 C748.3,73.2 741.4,76.7 734.5,76.7 C738,69.8 738,66.3 741.4,59.4 C744.9,49 748.3,38.6 748.3,24.8 C748.3,17.9 748.3,10.9 741.4,7.5 C737.9,4 731,4 724.1,7.5 C699.9,21.4 682.5,28.3 665.2,35.2 C651.3,38.7 641,42.1 627.1,45.6 C613.2,31.7 595.9,21.4 578.6,14.4 C557.8,7.5 537,0.5 516.3,0.5 C488.6,0.5 464.4,7.4 436.6,17.8 C422.7,24.7 412.4,31.7 402,42 C384.7,55.9 370.8,76.6 363.9,97.4 C353.5,118.2 346.6,142.4 346.6,163.2 L346.6,170.1 L346.6,170.1 C318.9,159.7 273.9,145.9 232.3,125.1 C215,118.2 190.7,104.3 166.5,83.5 C142.3,62.7 118,38.5 100.7,14.2 C100.7,7.3 97.2,7.3 90.3,7.3 C86.8,7.3 79.9,7.3 76.4,10.8 C72.9,17.7 66,24.7 59.1,31.6 C52.2,42 45.2,52.4 41.8,62.8 C38.5,73.1 35,87 35,97.4 L35,125.1 C35,145.9 38.5,170.1 48.9,194.4 C38.5,197.9 31.6,201.3 31.6,211.7 L31.6,229 C31.6,280.9 48.9,319 73.2,350.2 C76.7,353.7 76.7,357.1 80.1,357.1 L80.1,357.1 L80.1,360.6 C80.1,381.4 83.6,398.7 94,412.5 C107.9,436.7 125.2,454.1 149.4,471.4 C156.3,478.3 166.7,481.8 177.1,485.3 C139,499.2 107.8,499.2 80.1,499.2 L48.9,499.2 L21.2,499.2 L14.3,499.2 C10.8,499.2 3.9,502.7 3.9,506.1 C0.4,509.6 0.4,513 0.4,520 C3.9,537.3 17.7,554.6 31.6,571.9 C55.8,592.7 87,613.5 125.1,627.3 C163.2,641.1 211.6,648 260.1,648 C332.8,648 412.5,630.7 488.7,589.1 C558,551 616.8,488.7 648,419.4 C658.4,395.2 672.2,364 682.6,332.8 C693,301.6 700,267.1 700,232.4 C700,222 700,211.6 696.5,201.2 C706.9,194.3 713.8,187.3 720.7,183.9 C734.6,170 744.9,159.7 755.3,145.8 C765.7,131.9 772.6,114.6 779.5,97.3 C783.1,83.5 783.1,80 779.6,76.6" id="Shape" sketch:type="MSShapeGroup"></path>
        </g>
    </g>
</svg>