<?xml version="1.0" encoding="utf-8"?>
<!-- Generator: Adobe Illustrator 18.1.1, SVG Export Plug-In . SVG Version: 6.00 Build 0)  -->
<svg version="1.1" id="Layer_1" xmlns="http://www.w3.org/2000/svg" xmlns:xlink="http://www.w3.org/1999/xlink" x="0px" y="0px"
	 viewBox="0 0 11.7 8.5" enable-background="new 0 0 11.7 8.5" xml:space="preserve">
<path fill="#EB5A4C" d="M11.5,3.7L9.2,0.4C8.9,0,8.2-0.1,7.8,0.2C7.3,0.5,7.2,1.1,7.6,1.6l1.2,1.7H1c-0.6,0-1,0.4-1,1s0.4,1,1,1h7.8
	L7.6,6.9C7.2,7.4,7.3,8,7.8,8.3C8,8.4,8.2,8.5,8.4,8.5c0.3,0,0.6-0.1,0.8-0.4l2.3-3.2C11.8,4.5,11.8,4,11.5,3.7z"/>
</svg>
