<?xml version="1.0" encoding="UTF-8" standalone="no"?>
<svg width="803px" height="25px" viewBox="0 0 803 25" version="1.1" xmlns="http://www.w3.org/2000/svg" xmlns:xlink="http://www.w3.org/1999/xlink" xmlns:sketch="http://www.bohemiancoding.com/sketch/ns">
    <!-- Generator: Sketch 3.4.3 (16618) - http://www.bohemiancoding.com/sketch -->
    <title>green-squiggle</title>
    <desc>Created with Sketch.</desc>
    <defs></defs>
    <g id="Page-1" stroke="none" stroke-width="1" fill="none" fill-rule="evenodd" sketch:type="MSPage">
        <g id="green-squiggle" sketch:type="MSLayerGroup" fill="#5AB78F">
            <path d="M801,2.2 C794.5,4.2 790,7.5 786.4,10.7 C780.7,15.2 775.8,19.2 765.7,19.2 C755.6,19.2 750.7,15.1 745,10.7 C739.3,6.2 732.8,1 720.6,1 C708.4,1 701.9,6.3 696.2,10.7 C690.5,15.2 685.6,19.2 675.5,19.2 C665.4,19.2 660.5,15.1 654.8,10.7 C649.1,6.2 642.6,1 630.4,1 C618.2,1 611.7,6.3 606,10.7 C600.3,15.2 595.4,19.2 585.3,19.2 C575.2,19.2 570.3,15.1 564.6,10.7 C558.9,6.2 552.4,1 540.2,1 C528,1 521.5,6.3 515.8,10.7 C510.1,15.2 505.2,19.2 495.1,19.2 C485,19.2 480.1,15.1 474.4,10.7 C468.7,6.2 462.2,1 450,1 C437.8,1 431.3,6.3 425.6,10.7 C419.9,15.2 415,19.2 404.9,19.2 C394.7,19.2 389.9,15.1 384.2,10.7 C378.5,6.2 372,1 359.8,1 C347.6,1 341.1,6.3 335.4,10.7 C329.7,15.2 324.8,19.2 314.7,19.2 C304.6,19.2 299.7,15.1 294,10.7 C288.3,6.2 281.8,1 269.6,1 C257.4,1 250.9,6.3 245.2,10.7 C239.5,15.2 234.6,19.2 224.5,19.2 C214.4,19.2 209.5,15.1 203.8,10.7 C198.1,6.2 191.6,1 179.4,1 C167.2,1 160.7,6.3 155,10.7 C149.3,15.2 144.4,19.2 134.3,19.2 C124.2,19.2 119.3,15.1 113.6,10.7 C107.9,6.2 101.4,1 89.2,1 C77,1 70.5,6.3 64.8,10.7 C59.1,15.2 54.2,19.2 44.1,19.2 C34,19.2 30.7,15.1 25,10.7 C19.3,5.8 12.8,0.5 0.6,0.5 L0.6,6.6 C10.8,6.6 15.6,10.7 21.3,15.1 C27,19.6 33.5,24.8 45.7,24.8 C57.9,24.8 64.4,19.5 70.1,15.1 C75.8,10.6 80.7,6.6 90.8,6.6 C100.9,6.6 105.8,10.7 111.5,15.1 C117.2,19.6 123.7,24.8 135.9,24.8 C148.1,24.8 154.6,19.5 160.3,15.1 C166,10.6 170.9,6.6 181,6.6 C191.1,6.6 196,10.7 201.7,15.1 C207.4,19.6 213.9,24.8 226.1,24.8 C238.3,24.8 244.8,19.5 250.5,15.1 C256.2,10.6 261.1,6.6 271.2,6.6 C281.3,6.6 286.2,10.7 291.9,15.1 C297.6,19.6 304.1,24.8 316.3,24.8 C328.5,24.8 335,19.5 340.7,15.1 C346.4,10.6 351.3,6.6 361.4,6.6 C371.5,6.6 376.4,10.7 382.1,15.1 C387.8,19.6 394.3,24.8 406.5,24.8 C418.7,24.8 425.2,19.5 430.9,15.1 C436.6,10.6 441.5,6.6 451.6,6.6 C461.7,6.6 466.6,10.7 472.3,15.1 C478,19.6 484.5,24.8 496.7,24.8 C508.9,24.8 515.4,19.5 521.1,15.1 C526.8,10.6 531.7,6.6 541.8,6.6 C551.9,6.6 556.8,10.7 562.5,15.1 C568.2,19.6 574.7,24.8 586.9,24.8 C599.1,24.8 605.6,19.5 611.3,15.1 C617,10.6 621.9,6.6 632,6.6 C642.1,6.6 647,10.7 652.7,15.1 C658.4,19.6 664.9,24.8 677.1,24.8 C689.3,24.8 695.8,19.5 701.5,15.1 C707.2,10.6 712.1,6.6 722.2,6.6 C732.3,6.6 737.2,10.7 742.9,15.1 C748.6,19.6 755.1,24.8 767.3,24.8 C779.5,24.8 786,19.5 791.7,15.1 C795.4,12.3 798.2,9.8 802.7,8.2 L802.7,2.1 L801,2.1 L801,2.2 Z" id="Shape" sketch:type="MSShapeGroup"></path>
        </g>
    </g>
</svg>