<?xml version="1.0" encoding="utf-8"?>
<!-- Generator: Adobe Illustrator 18.1.1, SVG Export Plug-In . SVG Version: 6.00 Build 0)  -->
<svg version="1.1" id="Layer_1" xmlns="http://www.w3.org/2000/svg" xmlns:xlink="http://www.w3.org/1999/xlink" x="0px" y="0px"
	 viewBox="0 0 197 8.5" enable-background="new 0 0 197 8.5" xml:space="preserve">
<path fill="#90CBAA" d="M197,1.6c-1.6,0.5-2.7,1.3-3.6,2.1c-1.4,1.1-2.6,2.1-5.1,2.1c-2.5,0-3.7-1-5.1-2.1c-1.4-1.1-3-2.4-6-2.4
	c-3,0-4.6,1.3-6,2.4c-1.4,1.1-2.6,2.1-5.1,2.1c-2.5,0-3.7-1-5.1-2.1c-1.4-1.1-3-2.4-6-2.4s-4.6,1.3-6,2.4c-1.4,1.1-2.6,2.1-5.1,2.1
	c-2.5,0-3.7-1-5.1-2.1c-1.4-1.1-3-2.4-6-2.4c-3,0-4.6,1.3-6,2.4c-1.4,1.1-2.6,2.1-5.1,2.1c-2.5,0-3.7-1-5.1-2.1
	c-1.4-1.1-3-2.4-6-2.4c-3,0-4.6,1.3-6,2.4c-1.4,1.1-2.6,2.1-5.1,2.1c-2.5,0-3.7-1-5.1-2.1c-1.4-1.1-3-2.4-6-2.4c-3,0-4.6,1.3-6,2.4
	c-1.4,1.1-2.6,2.1-5.1,2.1c-2.5,0-3.7-1-5.1-2.1c-1.4-1.1-3-2.4-6-2.4c-3,0-4.6,1.3-6,2.4c-1.4,1.1-2.6,2.1-5.1,2.1
	c-2.5,0-3.7-1-5.1-2.1c-1.4-1.1-3-2.4-6-2.4c-3,0-4.6,1.3-6,2.4c-1.4,1.1-2.6,2.1-5.1,2.1c-2.5,0-3.7-1-5.1-2.1
	c-1.4-1.1-3-2.4-6-2.4c-3,0-4.6,1.3-6,2.4c-1.4,1.1-2.6,2.1-5.1,2.1S7.4,4.8,6,3.7C4.6,2.5,3,1.2,0,1.2v1.5c2.5,0,3.7,1,5.1,2.1
	c1.4,1.1,3,2.4,6,2.4c3,0,4.6-1.3,6-2.4c1.4-1.1,2.6-2.1,5.1-2.1c2.5,0,3.7,1,5.1,2.1c1.4,1.1,3,2.4,6,2.4c3,0,4.6-1.3,6-2.4
	c1.4-1.1,2.6-2.1,5.1-2.1c2.5,0,3.7,1,5.1,2.1c1.4,1.1,3,2.4,6,2.4s4.6-1.3,6-2.4c1.4-1.1,2.6-2.1,5.1-2.1c2.5,0,3.7,1,5.1,2.1
	c1.4,1.1,3,2.4,6,2.4c3,0,4.6-1.3,6-2.4c1.4-1.1,2.6-2.1,5.1-2.1c2.5,0,3.7,1,5.1,2.1c1.4,1.1,3,2.4,6,2.4c3,0,4.6-1.3,6-2.4
	c1.4-1.1,2.6-2.1,5.1-2.1c2.5,0,3.7,1,5.1,2.1c1.4,1.1,3,2.4,6,2.4c3,0,4.6-1.3,6-2.4c1.4-1.1,2.6-2.1,5.1-2.1c2.5,0,3.7,1,5.1,2.1
	c1.4,1.1,3,2.4,6,2.4c3,0,4.6-1.3,6-2.4c1.4-1.1,2.6-2.1,5.1-2.1s3.7,1,5.1,2.1c1.4,1.1,3,2.4,6,2.4s4.6-1.3,6-2.4
	c1.4-1.1,2.6-2.1,5.1-2.1c2.5,0,3.7,1,5.1,2.1c1.4,1.1,3,2.4,6,2.4c3,0,4.6-1.3,6-2.4c0.9-0.7,1.6-1.3,2.7-1.7V1.6z"/>
</svg>
