<?xml version="1.0" encoding="utf-8"?>
<!-- Generator: Adobe Illustrator 18.1.1, SVG Export Plug-In . SVG Version: 6.00 Build 0)  -->
<svg version="1.1" id="Layer_1" xmlns="http://www.w3.org/2000/svg" xmlns:xlink="http://www.w3.org/1999/xlink" x="0px" y="0px"
	 viewBox="0 0 200 200" enable-background="new 0 0 200 200" xml:space="preserve">
<g>
	<polygon fill="#FFFFFF" points="66.7,97.7 72.3,94.8 76.4,103 79.7,101.3 82.2,106.1 78.9,107.8 87.7,125.2 82.2,128 73.3,110.6 
		70.5,112.1 68,107.3 70.9,105.8 	"/>
	<g>
		<path fill="#FFFFFF" d="M103.2,99.8c-1-1-2.2-1.7-3.7-1.9c-1.5-0.2-2.9,0-4.4,0.8c-1.6,0.8-2.7,1.9-3.4,3.4
			c-0.5,0.9-0.6,2.2-0.6,3.9L103.2,99.8z M111,101.4l-17.9,9.1c1.1,1.4,2.4,2.3,4,2.7c1.6,0.4,3.3,0.1,5-0.8
			c2.1-1.1,3.5-2.7,4.2-4.9l5.8-0.2c-0.3,2.3-1.1,4.2-2.3,5.8c-1.2,1.6-3,3-5.2,4.1c-3.5,1.8-6.9,2.1-10.2,1
			c-3.3-1.1-5.8-3.3-7.5-6.6c-1.7-3.4-2.1-6.7-1-10.1c1-3.3,3.2-5.9,6.5-7.5c3.5-1.8,6.9-2.1,10.2-1c3.3,1.1,5.9,3.5,7.8,7.2
			L111,101.4z"/>
		<path fill="#FFFFFF" d="M129,86.7c-1-1-2.2-1.7-3.7-1.9s-2.9,0-4.4,0.8c-1.6,0.8-2.7,1.9-3.4,3.4c-0.5,0.9-0.6,2.2-0.6,3.9
			L129,86.7z M136.8,88.2L119,97.3c1.1,1.4,2.4,2.3,4,2.7c1.6,0.4,3.3,0.1,5-0.8c2.1-1.1,3.5-2.7,4.2-4.9l5.8-0.2
			c-0.3,2.3-1.1,4.2-2.3,5.8c-1.2,1.6-3,3-5.2,4.1c-3.5,1.8-6.9,2.1-10.2,1c-3.3-1.1-5.8-3.3-7.5-6.6c-1.7-3.4-2.1-6.7-1-10.1
			c1-3.3,3.2-5.9,6.5-7.5c3.5-1.8,6.9-2.1,10.2-1c3.3,1.1,5.9,3.5,7.8,7.2L136.8,88.2z"/>
		<path fill="#FFFFFF" d="M132.9,74.3l4.8-2.4l1.4,2.8c0-1.4,0.2-2.5,0.8-3.6c0.6-1,1.4-1.8,2.4-2.3c0.7-0.4,1.6-0.6,2.6-0.6
			l0.7,5.7c-0.8,0-1.4,0.1-1.9,0.3c-0.9,0.4-1.3,1.3-1.4,2.7c-0.1,1.4,0.7,3.6,2.3,6.7l0.6,1.1l4.6,9l-5.5,2.8L132.9,74.3z"/>
		<path fill="#FFFFFF" d="M71.5,119.3c-1-0.8-2.4-1.5-4.1-2.1c-0.7-0.2-2.6-0.7-5.7-1.4c-3.3-0.8-5.3-1.3-6.1-1.7
			c-0.6-0.3-1-0.7-1.2-1.2c-0.3-0.5-0.3-1.1,0-1.8c0.3-0.6,0.8-1.3,1.5-1.7c1.1-0.6,2.5-0.6,4.1-0.2l-0.7,2.4l6.6-3.4l-3.6-7
			l-0.8,2.6c-1.6-0.5-2.9-0.7-4.1-0.7c-1.7,0-3,0.4-4.5,1.1c-2.3,1.2-3.6,2.9-4.5,5.1c-0.8,2.3-0.7,4.4,0.3,6.5
			c0.7,1.4,1.9,2.6,3.6,3.6c1.7,1,4.8,1.9,9.4,2.9c2.4,0.5,4,1,4.9,1.4c0.8,0.4,1.4,1,1.8,1.6c0.4,0.7,0.4,1.6,0,2.5
			c-0.4,0.9-1,1.6-2,2.1c-1.9,0.9-4.2,0.5-7-1.4l-1.5,2.5l-1.7,2.8c2.2,1.7,4.4,2.6,6.5,2.8c2.1,0.2,4.2-0.2,6.3-1.3
			c2.7-1.4,4.5-3.3,5.4-5.7c0.9-2.4,0.7-4.9-0.5-7.3C73.3,121.1,72.5,120.1,71.5,119.3"/>
		<path fill="#FFFFFF" d="M17.5,89.3c0.1-0.7-0.4-1.4-1.1-1.5c-0.7-0.1-1.4,0.4-1.5,1.1l-0.2,1.6l2.6,0.4L17.5,89.3z M12.7,89.4
			c0.1-0.6-0.3-1.3-1.1-1.4c-0.8-0.1-1.3,0.5-1.4,1.1L10.1,90l2.5,0.3L12.7,89.4z M8.5,88.7c0.2-1.7,1.9-3,3.6-2.7
			c0.7,0.1,1.2,0.4,1.7,0.8c0.7-0.7,1.7-1.1,2.8-0.9c1.8,0.3,3.1,1.9,2.8,3.7l-0.5,3.6L8.1,91.6L8.5,88.7z"/>
		<path fill="#FFFFFF" d="M12.2,80l2.1,0.5l0.5-1.9c0.2-0.6-0.2-1.2-0.8-1.3c-0.6-0.1-1.2,0.2-1.3,0.8L12.2,80z M21.5,79.2l-4.7,0.9
			l-0.3,1.1l4.2,1.1l-0.5,2.1L9.6,81.6l1-4c0.4-1.8,2.2-2.8,4-2.4c1.3,0.3,2.2,1.4,2.4,2.6l5.1-0.9L21.5,79.2z"/>
		<path fill="#FFFFFF" d="M18.1,71.7c1.7,0.7,3.7-0.2,4.4-1.9c0.7-1.7-0.2-3.7-1.9-4.4c-1.7-0.7-3.7,0.2-4.4,1.9
			C15.5,69,16.3,71,18.1,71.7 M21.4,63.3c2.9,1.2,4.3,4.5,3.1,7.3c-1.2,2.9-4.5,4.3-7.3,3.1c-2.9-1.2-4.3-4.5-3.1-7.3
			C15.2,63.5,18.5,62.1,21.4,63.3"/>
		<path fill="#FFFFFF" d="M27.9,54.5c2,1.1,2.8,3.7,1.6,5.7c-1.1,2-3.7,2.8-5.7,1.7l-6-3.3l1.1-1.9l6,3.3c0.5,0.3,1,0.3,1.6,0.2
			c0.5-0.2,1-0.5,1.2-1c0.3-0.5,0.3-1,0.2-1.5c-0.2-0.5-0.5-0.9-1-1.2l0,0l-6-3.3l1.1-1.9L27.9,54.5L27.9,54.5z"/>
		<path fill="#FFFFFF" d="M30.7,45.9l2.9-3.7l5.3,4.1l-1.3,1.7l-0.9-0.7c0,1.6-0.6,2.9-1.1,3.5c-1.9,2.5-5.4,2.9-7.9,1
			c-2.4-1.9-2.9-5.4-1-7.9l0,0c0.8-1,1.9-1.7,3.1-2l0.3,2.2c-0.6,0.2-1.2,0.6-1.6,1.2l0,0c-0.6,0.7-0.8,1.6-0.7,2.6
			c0.1,0.9,0.6,1.7,1.3,2.3c0.7,0.6,1.6,0.8,2.5,0.7c0.9-0.1,1.8-0.6,2.3-1.3l0,0c0.6-0.7,0.8-1.6,0.7-2.5c-0.1-0.6-0.3-1.2-0.7-1.7
			l-1.5,2L30.7,45.9z"/>
	</g>
	<polygon fill="#FFFFFF" points="37.4,32.4 39,30.9 46.5,38.7 45,40.2 41.8,37 38.9,39.8 42.1,43.1 40.5,44.6 32.9,36.7 34.5,35.2 
		37.4,38.2 40.3,35.4 	"/>
	<polygon fill="#FFFFFF" points="48.2,23.7 49.5,25.5 47.1,27.3 52.3,34.3 50.6,35.6 45.3,28.6 42.9,30.4 41.6,28.6 	"/>
	<polygon fill="#FFFFFF" points="63.3,15.4 64.3,17.4 61.5,18.7 65.4,26.6 63.4,27.5 59.6,19.7 56.9,21 55.9,19 	"/>
	<g>
		<path fill="#FFFFFF" d="M69.2,18.9c0.6,1.8,2.5,2.7,4.3,2.1c1.8-0.6,2.7-2.5,2.1-4.3c-0.6-1.8-2.5-2.7-4.3-2.1
			C69.6,15.2,68.6,17.1,69.2,18.9 M77.8,16c1,3-0.6,6.2-3.6,7.2c-3,1-6.2-0.6-7.2-3.6c-1-3,0.6-6.2,3.6-7.2
			C73.6,11.5,76.8,13.1,77.8,16"/>
	</g>
	<polygon fill="#FFFFFF" points="94.4,7.9 91.6,15.2 92.1,19.2 89.9,19.4 89.4,15.4 85.1,9 87.5,8.7 90.2,12.5 92,8.2 	"/>
	<g>
		<path fill="#FFFFFF" d="M98.4,13.3c0,1.9,1.5,3.4,3.3,3.5c1.9,0,3.4-1.5,3.5-3.3c0-1.9-1.5-3.4-3.3-3.5
			C100,9.9,98.4,11.4,98.4,13.3 M107.4,13.5c-0.1,3.1-2.7,5.6-5.8,5.5c-3.1-0.1-5.6-2.7-5.5-5.8c0.1-3.1,2.7-5.6,5.8-5.5
			C105,7.8,107.5,10.4,107.4,13.5"/>
		<path fill="#FFFFFF" d="M118,16.9c-0.3,2.3-2.5,3.9-4.8,3.6c-2.3-0.3-3.9-2.5-3.6-4.8l1-6.8l2.2,0.3l-1,6.8
			c-0.1,0.5,0.1,1.1,0.4,1.5c0.3,0.4,0.8,0.7,1.3,0.8c0.5,0.1,1.1,0,1.5-0.4c0.4-0.3,0.7-0.8,0.8-1.3l0,0l1-6.8l2.2,0.3L118,16.9
			L118,16.9z"/>
		<path fill="#FFFFFF" d="M129.1,17.3c0.6,0.2,1.4-0.1,1.6-0.8c0.2-0.7-0.2-1.4-0.8-1.6l-0.9-0.3l-0.8,2.4L129.1,17.3z M128.2,22
			c0.7,0.2,1.5-0.1,1.7-0.8c0.2-0.7-0.1-1.4-0.8-1.7l-1.5-0.5l-0.8,2.5L128.2,22z M130.6,13.2c1.7,0.6,2.6,2.4,2,4.1
			c-0.2,0.6-0.6,1.1-1.1,1.5c0.6,0.8,0.7,1.9,0.4,2.9c-0.6,1.7-2.5,2.6-4.2,2.1l-3.4-1.2l3.5-10.3L130.6,13.2z"/>
	</g>
	<polygon fill="#FFFFFF" points="144.3,19 138.2,23.7 136.5,27.4 134.5,26.4 136.2,22.8 135.9,15 138.1,16.1 138.4,20.7 142.1,17.9 
			"/>
	<g>
		<path fill="#FFFFFF" d="M106.7,186.7c-0.4-0.1-1-0.2-1.7-0.6c-0.9-0.5-1.4-1.3-1.5-2.4c-0.1-0.9,0.1-1.6,0.7-2.3
			c0.8-0.9,1.9-1.2,2.5-1.2c1.6-0.1,2.5,0.4,3.3,0.9l0.4,0.2l-1,1.9l-0.4-0.2c-0.7-0.4-1.2-0.7-2.1-0.6c-0.1,0-0.7,0.2-0.9,0.5
			c-0.1,0.1-0.2,0.3-0.1,0.6c0,0.6,0.5,0.8,1.5,1c0.1,0,0.2,0,0.3,0.1c1.1,0.3,1.9,0.7,2.5,1.3c0.6,0.6,0.9,1.3,1,2.1
			c0,0.8-0.2,1.6-0.7,2.2c-0.6,0.8-1.5,1.2-2.4,1.3c-0.5,0-1.1,0-1.9-0.2c-1-0.3-1.9-0.7-2.7-1.5l1.5-1.6c1.2,1.2,2.5,1.1,3,1.1
			c0.9-0.1,1.1-0.9,1.1-1.2c0-0.6-0.7-1.1-1.9-1.4L106.7,186.7L106.7,186.7z"/>
	</g>
	<polygon fill="#FFFFFF" points="119.8,178.6 120.2,180.7 117.2,181.3 118.8,189.9 116.7,190.3 115.1,181.7 112.1,182.2 
		111.7,180.1 	"/>
	<polygon fill="#FFFFFF" points="129,178.1 124.1,179.6 124.7,181.5 128.7,180.2 129.4,182.3 125.4,183.6 126.1,185.8 130.9,184.3 
		131.5,186.4 124.6,188.6 121.4,178.2 128.3,176 	"/>
	<polygon fill="#FFFFFF" points="137.8,174.2 133.2,176.3 134,178.1 137.8,176.4 138.8,178.4 134.9,180.1 135.9,182.3 140.5,180.2 
		141.4,182.2 134.8,185.2 130.3,175.2 136.9,172.2 	"/>
	<g>
		<path fill="#FFFFFF" d="M141.7,172l1.1,1.9l1.7-1c0.5-0.3,0.7-1,0.4-1.5c-0.3-0.5-1-0.7-1.5-0.4L141.7,172z M148.9,177.9l-4-2.7
			l-0.9,0.6l2.3,3.7l-1.9,1.1l-5.7-9.3l3.5-2.1c1.5-0.9,3.6-0.4,4.5,1.1c0.7,1.1,0.6,2.5-0.1,3.5l4.3,2.9L148.9,177.9z"/>
	</g>
	
		<rect x="152.1" y="172.7" transform="matrix(0.5893 0.8079 -0.8079 0.5893 203.2426 -52.3621)" fill="#FFFFFF" width="2" height="2"/>
	<polygon fill="#FFFFFF" points="163.3,166.5 158.8,161.6 158.4,165.8 154.2,165.8 158.7,170.7 157.1,172.2 149.7,164.1 
		150.3,163.6 156.4,163.6 157,157.5 157.6,157 164.9,165 	"/>
	<polygon fill="#FFFFFF" points="165.2,151.2 162,155.1 163.5,156.4 166.2,153.1 167.9,154.5 165.2,157.8 167,159.3 170.3,155.4 
		171.9,156.8 167.3,162.3 158.9,155.4 163.5,149.8 	"/>
	<g>
		<path fill="#FFFFFF" d="M55.7,13.1c-11.7,6-21.9,14.1-30.3,24.1c-8.1,9.6-14.2,20.6-18.1,32.7c-3.9,12-5.4,24.5-4.5,37.1
			c0.9,13,4.4,25.6,10.4,37.3c6,11.7,14.1,21.9,24.1,30.3c9.6,8.1,20.6,14.2,32.7,18.1c12,3.9,24.5,5.4,37.1,4.5
			c13-0.9,25.6-4.4,37.3-10.4c11.7-6,21.9-14.1,30.3-24.1c8.1-9.6,14.2-20.6,18.1-32.7c3.9-12,5.4-24.5,4.5-37.1
			c-0.9-13-4.4-25.6-10.4-37.3c-6-11.7-14.1-21.9-24.1-30.3c-9.6-8.1-20.6-14.2-32.7-18.1c-12-3.9-24.5-5.4-37.1-4.5
			C80,3.7,67.5,7.2,55.7,13.1 M145.2,188.6c-12,6.1-24.8,9.7-38,10.6c-12.8,0.9-25.6-0.6-37.9-4.6c-12.3-4-23.5-10.2-33.3-18.5
			c-10.2-8.6-18.4-19-24.5-31c-6.1-12-9.7-24.8-10.6-38c-0.9-12.8,0.6-25.6,4.6-37.9c4-12.3,10.2-23.5,18.5-33.3
			c8.6-10.2,19-18.4,31-24.5c12-6.1,24.8-9.7,38.1-10.6c12.8-0.9,25.6,0.6,37.9,4.6c12.3,4,23.5,10.2,33.3,18.5
			c10.2,8.6,18.4,19,24.5,31c6.1,12,9.7,24.8,10.6,38c0.9,12.8-0.6,25.6-4.6,37.9c-4,12.3-10.2,23.5-18.5,33.3
			C167.5,174.3,157.1,182.5,145.2,188.6"/>
		<path fill="#FFFFFF" d="M66.6,34.5c-17.5,8.9-30.5,24.1-36.5,42.8c-6.1,18.7-4.5,38.6,4.4,56.1s24.1,30.5,42.8,36.5
			s38.6,4.5,56.1-4.4c17.5-8.9,30.5-24.1,36.5-42.8c6.1-18.7,4.5-38.6-4.4-56.1c-8.9-17.5-24.1-30.5-42.8-36.5
			C104,24,84.1,25.6,66.6,34.5 M134.3,167.3c-18,9.2-38.4,10.8-57.6,4.5c-19.2-6.2-34.8-19.6-43.9-37.5c-9.2-18-10.8-38.4-4.5-57.6
			c6.2-19.2,19.6-34.8,37.5-43.9c18-9.2,38.4-10.8,57.6-4.5c19.2,6.2,34.8,19.6,43.9,37.5c9.2,18,10.8,38.4,4.5,57.6
			C165.6,142.5,152.2,158.1,134.3,167.3"/>
	</g>
</g>
</svg>
