<?xml version="1.0" encoding="utf-8"?>
<!-- Generator: Adobe Illustrator 18.1.1, SVG Export Plug-In . SVG Version: 6.00 Build 0)  -->
<svg version="1.1" id="Layer_1" xmlns="http://www.w3.org/2000/svg" xmlns:xlink="http://www.w3.org/1999/xlink" x="0px" y="0px"
	 viewBox="0 0 800 800" enable-background="new 0 0 800 800" xml:space="preserve">
<g>
	<path fill="#263D8E" d="M789.6,157.6c-3.5-3.5-10.4-6.9-13.9-6.9c-3.5,0-6.9,0-13.9,3.5c-3.5,0-10.4,3.5-17.3,3.5
		c3.5-6.9,3.5-10.4,6.9-17.3c3.5-10.4,6.9-20.8,6.9-34.6c0-6.9,0-13.9-6.9-17.3c-3.5-3.5-10.4-3.5-17.3,0
		c-24.2,13.9-41.6,20.8-58.9,27.7c-13.9,3.5-24.2,6.9-38.1,10.4c-13.9-13.9-31.2-24.2-48.5-31.2c-20.8-6.9-41.6-13.9-62.3-13.9
		c-27.7,0-51.9,6.9-79.7,17.3c-13.9,6.9-24.2,13.9-34.6,24.2c-17.3,13.9-31.2,34.6-38.1,55.4c-10.4,20.8-17.3,45-17.3,65.8
		c0,3.5,0,3.5,0,6.9l0,0c-27.7-10.4-72.7-24.2-114.3-45c-17.3-6.9-41.6-20.8-65.8-41.6c-24.2-20.8-48.5-45-65.8-69.3
		c0-6.9-3.5-6.9-10.4-6.9c-3.5,0-10.4,0-13.9,3.5c-3.5,6.9-10.4,13.9-17.3,20.8c-6.9,10.4-13.9,20.8-17.3,31.2
		C48.5,154.1,45,168,45,178.4c0,10.4,0,17.3,0,27.7c0,20.8,3.5,45,13.9,69.3c-10.4,3.5-17.3,6.9-17.3,17.3c0,6.9,0,10.4,0,17.3
		c0,51.9,17.3,90,41.6,121.2c3.5,3.5,3.5,6.9,6.9,6.9l0,0v3.5c0,20.8,3.5,38.1,13.9,51.9c13.9,24.2,31.2,41.6,55.4,58.9
		c6.9,6.9,17.3,10.4,27.7,13.9c-38.1,13.9-69.3,13.9-97,13.9c-10.4,0-20.8,0-31.2,0c-10.4,0-17.3,0-27.7,0c-3.5,0-3.5,0-6.9,0
		c-3.5,0-10.4,3.5-10.4,6.9c-3.5,3.5-3.5,6.9-3.5,13.9c3.5,17.3,17.3,34.6,31.2,51.9c24.2,20.8,55.4,41.6,93.5,55.4
		S221.6,729,270.1,729c72.7,0,152.4-17.3,228.6-58.9C568,632,626.8,569.7,658,500.4c10.4-24.2,24.2-55.4,34.6-86.6
		S710,348.1,710,313.4c0-10.4,0-20.8-3.5-31.2c10.4-6.9,17.3-13.9,24.2-17.3c13.9-13.9,24.2-24.2,34.6-38.1
		c10.4-13.9,17.3-31.2,24.2-48.5C793.1,164.5,793.1,161,789.6,157.6"/>
</g>
</svg>
