<?xml version="1.0" encoding="utf-8"?>
<!-- Generator: Adobe Illustrator 18.1.1, SVG Export Plug-In . SVG Version: 6.00 Build 0)  -->
<svg version="1.1" id="Layer_1" xmlns="http://www.w3.org/2000/svg" xmlns:xlink="http://www.w3.org/1999/xlink" x="0px" y="0px"
	 viewBox="0 0 23.1 19" enable-background="new 0 0 23.1 19" xml:space="preserve">
<g>
	<path fill="#FFE37E" d="M22.8,2.5c-0.1-0.1-0.3-0.2-0.4-0.2c-0.1,0-0.2,0-0.4,0.1c-0.1,0-0.3,0.1-0.5,0.1c0.1-0.2,0.1-0.3,0.2-0.5
		c0.1-0.3,0.2-0.6,0.2-1c0-0.2,0-0.4-0.2-0.5c-0.1-0.1-0.3-0.1-0.5,0c-0.7,0.4-1.2,0.6-1.7,0.8c-0.4,0.1-0.7,0.2-1.1,0.3
		c-0.4-0.4-0.9-0.7-1.4-0.9c-0.6-0.2-1.2-0.4-1.8-0.4c-0.8,0-1.5,0.2-2.3,0.5c-0.4,0.2-0.7,0.4-1,0.7c-0.5,0.4-0.9,1-1.1,1.6
		c-0.3,0.6-0.5,1.3-0.5,1.9c0,0.1,0,0.1,0,0.2c0,0,0,0,0,0C9.5,4.9,8.2,4.5,7,3.9C6.5,3.7,5.8,3.3,5.1,2.7c-0.7-0.6-1.4-1.3-1.9-2
		C3.2,0.5,3.1,0.5,2.9,0.5c-0.1,0-0.3,0-0.4,0.1C2.4,0.8,2.2,1,2,1.2C1.8,1.5,1.6,1.8,1.5,2.1C1.4,2.4,1.3,2.8,1.3,3.1
		c0,0.3,0,0.5,0,0.8c0,0.6,0.1,1.3,0.4,2C1.4,6,1.2,6.1,1.2,6.4c0,0.2,0,0.3,0,0.5c0,1.5,0.5,2.6,1.2,3.5c0.1,0.1,0.1,0.2,0.2,0.2
		c0,0,0,0,0,0c0,0,0,0.1,0,0.1c0,0.6,0.1,1.1,0.4,1.5c0.4,0.7,0.9,1.2,1.6,1.7c0.2,0.2,0.5,0.3,0.8,0.4c-1.1,0.4-2,0.4-2.8,0.4
		c-0.3,0-0.6,0-0.9,0c-0.3,0-0.5,0-0.8,0c-0.1,0-0.1,0-0.2,0c-0.1,0-0.3,0.1-0.3,0.2c-0.1,0.1-0.1,0.2-0.1,0.4
		c0.1,0.5,0.5,1,0.9,1.5c0.7,0.6,1.6,1.2,2.7,1.6c1.1,0.4,2.5,0.6,3.9,0.6c2.1,0,4.4-0.5,6.6-1.7c2-1.1,3.7-2.9,4.6-4.9
		c0.3-0.7,0.7-1.6,1-2.5c0.3-0.9,0.5-1.9,0.5-2.9c0-0.3,0-0.6-0.1-0.9c0.3-0.2,0.5-0.4,0.7-0.5c0.4-0.4,0.7-0.7,1-1.1
		c0.3-0.4,0.5-0.9,0.7-1.4C22.9,2.7,22.9,2.6,22.8,2.5"/>
</g>
</svg>
